# xmcd
#
# Track frame offsets: 
#        182
#        11602
#        23092
#        34452
#        45350
#        55635
#        66562
#        80375
#        93605
#        106022
#        116862
#        126725
#        138517
#        151335
#        164355
#        178200
#        191235
#        203870
#        215432
#        227350
#        240822
#        251035
#        264650
#        275572
#        288947
#        302082
#
# Disc length: 4194 seconds
#
# Revision: 5
# Processed by: cddbd v1.5.2PL0 Copyright (c) Steve Scherf et al.
# Submitted via: ExactAudioCopyFreeDBPlugin 1.0
#
DISCID=7a10601a
DTITLE=Various Artist - The Doo Wop Boxes I, II, and III [Rhino box set
DTITLE=s]
DYEAR=2000
DGENRE=Rhythm and Blues
TTITLE0=The Avons - Our Love Will Never End (celebrity pick by Tim Hau
TTITLE0=ser of The Manhattan Transfer)
TTITLE1=The Fi-Tones Quintette - I Belong to You (celebrity pick by Ti
TTITLE1=m Hauser of The Manhattan Transfer)
TTITLE2=The Colts - Sheik of Araby (celebrity pick by by Dave and Phil A
TTITLE2=lvin)
TTITLE3=The Honey Bears - One Bad Stud (celebrity pick by by Dave and Ph
TTITLE3=il Alvin)
TTITLE4=The Cadets - Wiggie Waggie Woo (celebrity pick by Dave and Phil 
TTITLE4=Alvin)
TTITLE5=The Clovers - Hey, Miss Fannie (celebrity pick by Art and Aaron 
TTITLE5=Neville)
TTITLE6=The Moonglows - Most of All (celebrity pick by Art and Aaron Nev
TTITLE6=ille)
TTITLE7=The Flamingos - The Vow (celebrity pick by Art and Aaron Neville
TTITLE7=)
TTITLE8=The Spiders - I Didn't Want to Do It (celebrity pick by Art and 
TTITLE8=Aaron Neville)
TTITLE9=Eddie and The Starlights - To Make a Long Story Short (celebrity
TTITLE9=pick by by Billy Vera)
TTITLE10=The Jive Tones - Ding Ding Dong (celebrity pick by by Billy V
TTITLE10=era)
TTITLE11=The Revalons - Dreams Are for Fools (celebrity pick by by Bil
TTITLE11=ly Vera)
TTITLE12=The Coronets - Nadine (celebrity pick by George Carlin)
TTITLE13=The Vocaleers - Oh Where (celebrity pick by George Carlin)
TTITLE14=The Castelles - My Girl Awaits Me (celebrity pick by George C
TTITLE14=arlin)
TTITLE15=The Marigolds - Rollin' Stone (celebrity pick by Peter Bergma
TTITLE15=n of The Firesign Theatre)
TTITLE16=The Coasters - Zing! Went the Strings of My Heart (celebrity 
TTITLE16=pick by by Leiber and Stoller)
TTITLE17=The Clovers - Stay Awhile (celebrity pick by Leiber and Stoller
TTITLE17=)
TTITLE18=The Clovers - Blue Velvet (celebrity pick by Ahmet Ertegun)
TTITLE19=The Orchids - Newly Wed (celebrity pick by Frank Zappa)
TTITLE20=The Five Satins - Wonderful Girl (celebrity pick by Dion DiMu
TTITLE20=cci)
TTITLE21=The Flamingos - Would I Be Crying (from the Motion Picture "R
TTITLE21=ock, Rock, Rock") (celebrity pick by Dion DiMucci)
TTITLE22=The Capris - Indian Girl (celebrity pick by by Robert Plant)
TTITLE23=Clyde McPhatter and the Drifters - Money Honey (celebrity pick 
TTITLE23=by by Quincy Jones)
TTITLE24=The Chantels - Maybe (celebrity pick by Keith Richards)
TTITLE25=Robert and Johnny - We Belong Together (celebrity pick by by Pa
TTITLE25=ul Simon)
EXTD=
EXTT0=
EXTT1=\n
EXTT2=
EXTT3=\n\n\n\n\n
EXTT4=
EXTT5=
EXTT6=
EXTT7=
EXTT8=
EXTT9=
EXTT10=
EXTT11=
EXTT12=
EXTT13=
EXTT14=
EXTT15=
EXTT16=
EXTT17=
EXTT18=
EXTT19=
EXTT20=
EXTT21=
EXTT22=
EXTT23=
EXTT24=
EXTT25=
PLAYORDER=
